Coordinates
version=1
nRows=26
nColumns=24
inDegrees=yes

Units are S.I. units (second, meters, Newtons, ...)
Angles are in degrees.

endheader
time	pelvis_tilt	pelvis_list	pelvis_rotation	pelvis_tx	pelvis_ty	pelvis_tz	hip_flexion_r	hip_adduction_r	hip_rotation_r	knee_angle_r	ankle_angle_r	subtalar_angle_r	mtp_angle_r	hip_flexion_l	hip_adduction_l	hip_rotation_l	knee_angle_l	ankle_angle_l	subtalar_angle_l	mtp_angle_l	lumbar_extension	lumbar_bending	lumbar_rotation
      1.75300000	     -0.76382042	      8.62883674	     -5.15360309	      1.40191891	      1.00478753	      0.26615073	     18.63474486	    -11.78575375	      2.57564814	    -67.89056293	      5.31334673	     -3.50446009	      9.37731139	      8.20551232	     13.73798140	      8.94595248	    -13.42288852	      3.16424121	    -20.37784879	     -2.81308050	     -9.51897241	     -4.40457230	      1.22623304
      1.75716667	     -0.69005866	      8.47373267	     -5.08171500	      1.40642451	      1.00564628	      0.26587835	     19.07557958	    -11.58680327	      2.50004892	    -67.34733963	      5.80441528	     -3.55542980	      9.25139932	      7.57727184	     13.60131456	      9.15537101	    -12.94578180	      3.14686106	    -20.38398333	     -2.80984111	     -9.64336034	     -4.15906478	      1.00960117
      1.76133333	     -0.60816961	      8.36160766	     -4.99608815	      1.41092018	      1.00646596	      0.26559420	     19.50298150	    -11.44770794	      2.40977012	    -66.77402548	      6.27373838	     -3.65280637	      8.95168766	      6.92195877	     13.51091091	      9.41335090	    -12.41315805	      3.03931122	    -20.49842157	     -2.80840165	     -9.72969007	     -3.96827160	      0.65929815
      1.76550000	     -0.55251020	      8.20035346	     -4.91784056	      1.41539275	      1.00721033	      0.26534302	     19.93868605	    -11.24231736	      2.32672614	    -66.14607612	      6.68251960	     -3.74593623	      8.81776369	      6.33030659	     13.35830041	      9.59664014	    -11.96535006	      3.08672221	    -20.46995081	     -2.80505960	     -9.82526448	     -3.72330706	      0.49479566
      1.76966667	     -0.47361794	      8.06065303	     -4.84064064	      1.41986413	      1.00794486	      0.26510706	     20.33873477	    -11.06599224	      2.23942830	    -65.48178544	      7.06979151	     -3.90773783	      8.66054553	      5.70481958	     13.22786717	      9.78666291	    -11.48963580	      3.07604682	    -20.48920042	     -2.80381007	     -9.92544296	     -3.50100316	      0.24413298
      1.77383333	     -0.40320114	      7.92829502	     -4.75126007	      1.42435470	      1.00861432	      0.26486685	     20.73405964	    -10.90065644	      2.14699151	    -64.78811900	      7.42863736	     -4.10208065	      8.48121397	      5.08697367	     13.10315693	      9.99620900	    -11.01201640	      3.05775842	    -20.51316221	     -2.80263151	    -10.02433962	     -3.27346069	     -0.01072136
      1.77800000	     -0.36107283	      7.79906309	     -4.65109740	      1.42879658	      1.00918631	      0.26462204	     21.15295749	    -10.73992783	      2.04714911	    -64.06270157	      7.76077043	     -4.31444281	      8.29371348	      4.51430157	     12.97835966	     10.20923645	    -10.56171247	      3.04808333	    -20.54474875	     -2.80200293	    -10.09072162	     -3.06357828	     -0.26542505
      1.78216667	     -0.30260290	      7.70710513	     -4.54033253	      1.43322051	      1.00972369	      0.26439694	     21.54864331	    -10.62363632	      1.95099464	    -63.31668956	      8.09366062	     -4.55313540	      7.93471759	      3.92097532	     12.89050728	     10.45102440	    -10.08938209	      2.96018081	    -20.62081283	     -2.80331758	    -10.18409950	     -2.90746563	     -0.59742376
      1.78633333	     -0.28231834	      7.55943151	     -4.43633100	      1.43767561	      1.01019082	      0.26419737	     21.94950952	    -10.43634833	      1.85582007	    -62.50330015	      8.37261110	     -4.79322056	      7.81275344	      3.39141322	     12.73520189	     10.61290824	     -9.68138968	      3.02330751	    -20.58969804	     -2.80112645	    -10.21524539	     -2.70101014	     -0.71882955
      1.79050000	     -0.22157305	      7.47318377	     -4.33648607	      1.44206878	      1.01061564	      0.26399777	     22.32686804	    -10.32658284	      1.77155946	    -61.69416453	      8.59710739	     -5.10503315	      7.47907385	      2.80426680	     12.64879497	     10.85692602	     -9.22053613	      2.96458420	    -20.66667993	     -2.80151626	    -10.32441487	     -2.52097639	     -1.09423456
      1.79466667	     -0.19212036	      7.33969356	     -4.21012619	      1.44652339	      1.01100313	      0.26378925	     22.68898537	    -10.17048033	      1.65429243	    -60.81651439	      8.81253229	     -5.38890159	      7.35794216	      2.27675706	     12.50620235	     11.03660776	     -8.83839428	      3.02686056	    -20.63228273	     -2.79732735	    -10.36583025	     -2.32108216	     -1.22858151
      1.79883333	     -0.16898182	      7.26470436	     -4.11001563	      1.45091324	      1.01127000	      0.26360753	     23.08455634	    -10.06659516	      1.59047504	    -59.95694510	      9.02703403	     -5.68545605	      4.59457931	      1.72339610	     12.42669824	     11.34447936	     -8.35606749	      2.90227326	    -20.90623663	     -2.74506947	    -10.42135951	     -2.18107773	     -1.43905510
      1.80300000	     -0.14158284	      7.14876298	     -3.96936292	      1.45529305	      1.01155312	      0.26343146	     23.42957207	     -9.93243317	      1.47708150	    -59.02199135	      9.18394819	     -5.99419121	      4.55731791	      1.22490369	     12.29333034	     11.49647630	     -8.01680106	      3.00355569	    -20.74762628	     -2.74080678	    -10.48429711	     -1.98951783	     -1.70446277
      1.80716667	     -0.10429333	      7.05661443	     -3.85561377	      1.45972478	      1.01179085	      0.26328917	     23.75935949	     -9.81977495	      1.39364973	    -58.06530617	      9.25866069	     -6.35254884	      4.49410659	      0.68421470	     12.18218633	     11.67469939	     -7.60397193	      3.06532592	    -20.70121407	     -2.73678422	    -10.54110433	     -1.81141973	     -2.02834996
      1.81133333	     -0.09703591	      6.96626180	     -3.72723337	      1.46411163	      1.01193428	      0.26313884	     24.10892389	     -9.71176277	      1.30444041	    -57.08041246	      9.33145567	     -6.69564229	      4.42419167	      0.19627978	     12.07157392	     11.87967260	     -7.23163450	      3.10622964	    -20.69430532	     -2.73249851	    -10.57182472	     -1.64697744	     -2.30648524
      1.81550000	     -0.08101639	      6.88524147	     -3.60057833	      1.46846594	      1.01204315	      0.26300454	     24.44403451	     -9.61615486	      1.22119419	    -56.07068069	      9.37709885	     -7.03938202	      4.35425267	     -0.29091479	     11.96876506	     12.07320920	     -6.87282627	      3.15118153	    -20.68925689	     -2.72486381	    -10.61861078	     -1.49528010	     -2.56760606
      1.81966667	     -0.07980865	      6.81456121	     -3.46525356	      1.47283192	      1.01209722	      0.26287566	     24.77356553	     -9.53590286	      1.13610029	    -55.03162873	      9.41613932	     -7.36393086	      4.27901949	     -0.76733422	     11.87081637	     12.27708332	     -6.50138637	      3.18778376	    -20.68055864	     -2.71620855	    -10.64761612	     -1.35719775	     -2.82836490
      1.82383333	     -0.09770566	      6.76217760	     -3.33803568	      1.47718380	      1.01205416	      0.26276147	     25.12430827	     -9.47322505	      1.06759585	    -53.97466290	      9.42897447	     -7.67495324	      4.19261482	     -1.21450030	     11.79065192	     12.48004063	     -6.14608752	      3.22780141	    -20.68029854	     -2.70664825	    -10.65278494	     -1.23827356	     -3.11003653
      1.82800000	     -0.09332592	      6.69737444	     -3.19533764	      1.48153305	      1.01204234	      0.26265588	     25.41980422	     -9.40515651	      0.98532270	    -52.87348066	      9.41552636	     -7.98337190	      4.10209533	     -1.68772463	     11.69159721	     12.68440551	     -5.78333648	      3.27141938	    -20.66117482	     -2.69512590	    -10.69048086	     -1.10848138	     -3.38994820
      1.83216667	     -0.14350045	      6.64459414	     -3.05617317	      1.48592552	      1.01189014	      0.26254514	     25.76301694	     -9.35460456	      0.90012756	    -51.74974081	      9.41123466	     -8.22757913	      4.04294465	     -2.08416926	     11.60408912	     12.86563216	     -5.46612533	      3.33746773	    -20.61742432	     -2.68584788	    -10.65522916	     -0.99677888	     -3.57616322
      1.83633333	     -0.13164982	      6.60441125	     -2.94459716	      1.49027991	      1.01179380	      0.26249701	     26.03536598	     -9.30839562	      0.84850144	    -50.60310312	      9.33324348	     -8.51901566	      3.95700635	     -2.56581179	     11.52536522	     13.03293216	     -5.09021126	      3.40291660	    -20.59558195	     -2.67275425	    -10.69682195	     -0.89081769	     -3.88702559
      1.84050000	     -0.15827809	      6.56745567	     -2.81402787	      1.49461481	      1.01160792	      0.26242012	     26.32844573	     -9.27598770	      0.78345845	    -49.42130159	      9.27659355	     -8.72728653	      3.89288710	     -2.98140490	     11.44911148	     13.21122901	     -4.77191749	      3.47074654	    -20.54559310	     -2.66088999	    -10.68890829	     -0.79103088	     -4.10849579
      1.84466667	     -0.20375384	      6.54723860	     -2.68317785	      1.49897580	      1.01134022	      0.26237392	     26.63384530	     -9.26102310	      0.72388935	    -48.23086995	      9.18953698	     -8.93880196	      3.82810780	     -3.38558492	     11.38384764	     13.37510213	     -4.43546278	      3.55326947	    -20.49174325	     -2.65008600	    -10.65779464	     -0.71044558	     -4.37105373
      1.84883333	     -0.22797510	      6.53452359	     -2.58913578	      1.50332190	      1.01106461	      0.26237159	     26.91399656	     -9.24571008	      0.68940881	    -47.01280993	      9.07523711	     -9.13006835	      3.75910479	     -3.81719266	     11.32513986	     13.50602997	     -4.07210476	      3.63308201	    -20.43242924	     -2.63761836	    -10.66475013	     -0.64902441	     -4.61755231
      1.85300000	     -0.29862836	      6.52431628	     -2.46703923	      1.50769022	      1.01070361	      0.26234459	     27.21365359	     -9.24495194	      0.63471327	    -45.76170579	      8.97663463	     -9.22595593	      3.71403083	     -4.18658995	     11.26542548	     13.65218633	     -3.74906316	      3.70278128	    -20.34333126	     -2.62930203	    -10.61583059	     -0.58329216	     -4.80048754
      1.85716667	     -0.34197906	      6.51395889	     -2.36380489	      1.51207588	      1.01034044	      0.26235433	     27.47434617	     -9.24201355	      0.58553846	    -44.48757378	      8.83008599	     -9.35330494	      3.66659898	     -4.59239603	     11.20320023	     13.76746740	     -3.40338846	      3.79994613	    -20.27429955	     -2.62067999	    -10.59687005	     -0.52807875	     -5.04710307
